<?xml version="1.0" standalone="no"?>
<!DOCTYPE svg PUBLIC "-//W3C//DTD SVG 20010904//EN"
 "http://www.w3.org/TR/2001/REC-SVG-20010904/DTD/svg10.dtd">
<svg version="1.0" xmlns="http://www.w3.org/2000/svg"
 width="700.000000pt" height="700.000000pt" viewBox="0 0 700.000000 700.000000"
 preserveAspectRatio="xMidYMid meet">
<metadata>
Created by potrace 1.14, written by Peter Selinger 2001-2017
</metadata>
<g transform="translate(0.000000,700.000000) scale(0.100000,-0.100000)"
fill="#000000" stroke="none">
<path d="M3305 6103 c-219 -28 -348 -61 -473 -118 -274 -127 -508 -385 -626
-691 -55 -143 -77 -272 -77 -453 -1 -195 40 -409 130 -693 22 -70 43 -148 47
-175 3 -26 8 -57 10 -68 2 -11 4 -63 5 -115 1 -345 -175 -664 -477 -862 -219
-144 -493 -301 -795 -455 -296 -152 -410 -253 -510 -453 -44 -87 -48 -129 -19
-177 27 -45 73 -66 127 -60 57 6 84 32 135 130 45 86 116 164 199 218 30 20
128 74 219 121 243 126 353 187 538 297 24 14 58 35 77 46 154 89 305 198 384
277 244 241 375 544 386 888 4 146 -14 273 -61 425 -100 327 -126 457 -129
645 -3 235 56 424 193 613 148 205 347 330 592 372 19 3 42 8 50 10 59 16 329
22 450 10 160 -15 281 -47 398 -105 46 -22 88 -45 95 -50 144 -116 186 -160
266 -276 156 -231 203 -528 135 -849 -27 -127 -35 -156 -84 -315 -64 -205 -75
-272 -75 -455 0 -108 10 -229 20 -245 2 -4 7 -20 9 -37 12 -63 50 -171 91
-258 95 -198 224 -357 390 -479 89 -66 345 -226 485 -304 25 -14 79 -44 120
-67 41 -23 156 -84 255 -135 291 -150 357 -204 441 -361 49 -94 80 -119 144
-119 69 0 130 61 130 130 0 69 -112 252 -211 346 -78 73 -155 122 -345 220
-93 48 -204 107 -248 131 -43 23 -80 43 -82 43 -8 0 -366 217 -459 279 -306
200 -479 516 -478 871 0 123 17 213 78 402 36 109 64 219 80 308 2 14 10 57
16 95 15 81 18 342 6 430 -48 352 -264 689 -563 881 -108 68 -276 135 -404
159 -16 3 -84 14 -128 21 -37 6 -419 12 -457 7z"/>
<path d="M2998 4900 c-111 -34 -161 -147 -110 -246 31 -58 82 -88 152 -89 214
-1 231 312 18 339 -18 3 -45 1 -60 -4z"/>
<path d="M3894 4892 c-117 -59 -140 -197 -47 -285 79 -74 215 -51 265 46 42
82 13 184 -64 227 -48 27 -115 32 -154 12z"/>
<path d="M3390 3404 c-133 -36 -245 -139 -290 -267 -10 -29 -28 -106 -39 -171
-25 -140 -107 -465 -149 -592 -63 -188 -140 -357 -215 -469 -41 -61 -141 -192
-161 -210 -18 -16 -117 -134 -173 -206 -55 -70 -129 -189 -162 -262 -28 -60
-61 -187 -56 -212 2 -11 4 -25 4 -32 2 -24 54 -73 90 -84 46 -14 101 1 132 34
11 12 29 53 40 92 44 147 109 246 318 490 189 220 285 380 387 643 39 99 106
313 118 375 3 12 22 96 44 187 22 91 46 200 53 243 19 126 77 189 173 189 89
0 146 -65 171 -194 8 -40 21 -111 30 -158 42 -221 131 -533 200 -700 37 -89
133 -281 151 -301 8 -8 14 -19 14 -22 0 -15 111 -159 233 -302 71 -82 153
-186 182 -230 50 -77 105 -196 105 -230 0 -24 29 -76 54 -96 53 -44 145 -28
190 33 44 61 6 219 -92 383 -30 51 -135 199 -152 215 -3 3 -30 34 -60 69 -30
36 -66 76 -79 90 -96 103 -229 320 -303 496 -65 155 -174 552 -194 710 -21
158 -65 279 -136 366 -28 34 -110 88 -165 109 -73 28 -188 34 -263 14z"/>
<path d="M2683 3137 c-21 -14 -39 -38 -49 -67 -29 -80 -77 -195 -89 -210 -6
-8 -23 -35 -38 -60 -14 -25 -34 -55 -44 -68 -134 -172 -226 -262 -508 -497
-310 -258 -498 -458 -616 -655 -97 -162 -167 -380 -161 -499 6 -95 117 -151
199 -101 39 24 59 60 67 125 20 161 101 334 234 499 94 116 227 243 462 439
302 253 476 433 587 606 82 129 163 317 163 382 0 103 -120 165 -207 106z"/>
<path d="M4157 3128 c-69 -59 -59 -144 40 -343 121 -243 275 -416 648 -728
392 -329 527 -478 634 -702 36 -76 67 -176 76 -245 12 -98 48 -139 128 -147
48 -5 95 19 123 62 55 85 -41 403 -188 623 -119 178 -275 338 -570 584 -230
193 -226 190 -330 293 -170 170 -284 342 -338 508 -28 86 -63 119 -132 125
-49 3 -56 1 -91 -30z"/>
</g>
</svg>
